<?xml version="1.0" encoding="utf-8"?>
<!-- Generator: Adobe Illustrator 19.1.0, SVG Export Plug-In . SVG Version: 6.00 Build 0)  -->
<svg version="1.1" id="Layer_1" xmlns="http://www.w3.org/2000/svg" xmlns:xlink="http://www.w3.org/1999/xlink" x="0px" y="0px"
	 viewBox="-244 351 789.2 100" style="enable-background:new -244 351 789.2 100;" xml:space="preserve">
<style type="text/css">
	.st0{fill:#8C7A16;}
	.st1{fill:#041E41;}
</style>
<g id="Layer_1_1_">
</g>
<g id="Layer_1_2_">
	<g>
		<g>
			<path class="st0" d="M147.2,387.8c0,6.9-2.9,12.1-8.7,15.7c-5.1,3.1-11.8,4.7-20.2,4.7c-2.7,0-4.9,0-6.7,0v26.2h-7.9v-66.6h18.3
				c8,0,14.2,2,18.7,5.9C145.1,377.3,147.2,382.1,147.2,387.8z M139.3,387.8c0-4.2-1.5-7.6-4.6-10c-3.1-2.4-7.3-3.6-12.8-3.6h-10.2
				v27.4h7.8C132.7,401.6,139.3,397,139.3,387.8z"/>
			<path class="st0" d="M208.9,434.4h-10l-23.4-27.5h-9.1v27.5h-7.9v-66.6h18.3c8.1,0,14.4,1.8,18.9,5.4c4.3,3.5,6.5,8.1,6.5,13.8
				c0,5.9-2.1,10.5-6.3,13.9c-3.1,2.5-6.9,4.1-11.5,4.8L208.9,434.4z M194.2,387c0-4.1-1.6-7.2-4.7-9.4c-3.1-2.2-7.5-3.3-13-3.3
				h-10.2v26.4h8.1C187.6,400.7,194.2,396.1,194.2,387z"/>
			<path class="st0" d="M279.9,401.1c0,9.7-3.3,18.1-9.9,25.3c-6.6,7.1-14.5,10.7-23.8,10.7c-9.3,0-17.3-3.6-23.8-10.8
				c-6.6-7.2-9.8-15.6-9.8-25.2c0-9.7,3.2-18.1,9.8-25.3c6.5-7.1,14.5-10.7,23.9-10.7c9.4,0,17.3,3.6,23.9,10.8
				C276.7,383.2,279.9,391.6,279.9,401.1z M271.7,401.1c0-7.7-2.5-14.4-7.5-20.1c-5-5.7-11-8.6-18-8.6c-7.4,0-13.4,2.8-18.3,8.4
				c-4.8,5.6-7.2,12.4-7.2,20.4c0,7.9,2.5,14.7,7.5,20.3c5,5.6,11,8.4,18,8.4c7,0,13-2.8,18-8.5
				C269.2,415.7,271.7,408.9,271.7,401.1z"/>
			<path class="st0" d="M349.1,401.1c0,9.7-3.4,17.6-10.1,23.6c-7.2,6.5-17.1,9.7-29.9,9.7h-15.8v-66.6h15.8
				c12.8,0,22.7,3.2,29.9,9.7C345.7,383.5,349.1,391.4,349.1,401.1z M341,401.1c0-7.3-2.4-13.3-7.2-18.1c-5.5-5.5-13.5-8.2-24.1-8.2
				h-8.5v52.5h8.5c10.5,0,18.6-2.7,24.1-8.2C338.6,414.4,341,408.4,341,401.1z"/>
			<path class="st0" d="M414.8,408.9c0,8.3-2.2,15-6.7,20.1c-4.7,5.4-11.3,8.1-19.7,8.1c-8.6,0-15.2-2.5-20-7.6
				c-4.8-5.1-7.1-11.9-7.1-20.6v-41.1h7.9v41.5c0,6.1,1.6,11,4.9,14.7c3.5,4,8.3,6,14.4,6c6.1,0,10.8-2,14.2-6.1
				c3.1-3.7,4.7-8.6,4.7-14.7v-41.5h7.5L414.8,408.9L414.8,408.9z"/>
			<path class="st0" d="M482.2,420.9l-0.5,9.2c-5.6,4.6-12.4,6.8-20.5,6.8c-9.6,0-17.6-3.6-24.2-10.8c-6.3-7-9.5-15.4-9.5-25.2
				c0-9.7,3.2-18.1,9.8-25.3c6.5-7.1,14.5-10.7,23.9-10.7c7.5,0,14.3,2.2,20.2,6.5l-0.6,8.5c-5.9-5.1-12.4-7.7-19.6-7.7
				c-7.4,0-13.4,2.8-18.3,8.4s-7.2,12.4-7.2,20.4c0,8.2,2.4,15.1,7.3,20.6c4.9,5.5,10.9,8.2,18.2,8.2c3.9,0,8-0.9,12.1-2.8
				C477.1,425.3,480.1,423.3,482.2,420.9z"/>
			<path class="st0" d="M545.2,374.8h-24.2v59.6h-7.9v-59.6H489v-7h56.2L545.2,374.8L545.2,374.8z"/>
		</g>
		<g>
			<path class="st1" d="M66.5,451h-3.9V351h3.9V451z"/>
		</g>
		<g>
			<path class="st1" d="M-182.8,435l-17.3-37.5h-0.3l-17.3,37.5h-1.8l-24.6-67.1h15.3l11.8,34.6h0.2l15.7-34.6h1.8l15.8,34.6h0.3
				l11.8-34.6h14.8L-181,435L-182.8,435L-182.8,435z"/>
			<path class="st1" d="M-119.1,421.2h2.2v14.6h-2.1c-21.7,0-37.1-14.8-37.1-34.8c0-20.1,15.4-34.6,37.1-34.6h2.1v14.3h-2.2
				c-13.5,0-22.6,8.6-22.6,20.3C-141.7,412.9-132.6,421.2-119.1,421.2z M-94.3,394.6v27.6h-13.3v-14.8h-14.8v-12.8H-94.3z"/>
			<path class="st0" d="M-86.5,415.5c4.7,4.2,12.1,7.3,18.6,7.3c6.9,0,10.9-3.3,10.9-7.6c0-4.7-5.2-6.7-12-9.4
				c-7.1-2.8-17.7-7.3-17.7-19.5c0-10.8,8.6-19.8,23.6-19.8c6.3,0,12.9,2,17.3,4.5v13.5c-4.4-3.1-11.1-5.1-16.2-5.1
				c-6.6,0-10.2,3-10.2,6.5c0,3.7,4.1,5.7,9.6,7.8c8.5,3.2,20.7,7.4,20.7,21c0,11.8-9.2,20.9-24.6,20.9c-8.1,0-15.6-2.7-20.1-6
				L-86.5,415.5L-86.5,415.5z"/>
			<path class="st1" d="M25.2,367.9v67h-2.8l-40.7-38.3h-0.3v37.7h-13.9v-66.5h3l41,38.1v-37.9L25.2,367.9L25.2,367.9z"/>
		</g>
	</g>
</g>
</svg>
