<?xml version="1.0" encoding="utf-8"?>
<!-- Generator: Adobe Illustrator 19.1.0, SVG Export Plug-In . SVG Version: 6.00 Build 0)  -->
<svg version="1.1" id="Layer_1" xmlns="http://www.w3.org/2000/svg" xmlns:xlink="http://www.w3.org/1999/xlink" x="0px" y="0px"
	 viewBox="-153 351 971.7 100" style="enable-background:new -153 351 971.7 100;" xml:space="preserve">
<style type="text/css">
	.st0{fill:#802528;}
	.st1{fill:#041E41;}
</style>
<g id="Layer_1_1_">
</g>
<g id="Layer_1_2_">
	<g>
		<g>
			<path class="st0" d="M202.7,434.4h-7.9v-66.6h7.9V434.4z"/>
			<path class="st0" d="M275.4,437.5h-0.9l-46.3-53.9v50.8h-7.9v-69.7h0.9l46.3,53.8v-50.7h7.9V437.5z"/>
			<path class="st0" d="M338.9,374.8h-24.2v59.6h-7.9v-59.6h-24.2v-7h56.2V374.8z"/>
			<path class="st0" d="M386.3,434.4h-38.2v-66.6h37.6v7h-29.7V396h25.6v7h-25.6v24.3h30.3L386.3,434.4L386.3,434.4z"/>
			<path class="st0" d="M438.6,434.4h-39.8v-66.6h7.9v59.6h31.9L438.6,434.4L438.6,434.4z"/>
			<path class="st0" d="M487.8,434.4h-39.8v-66.6h7.9v59.6h31.9L487.8,434.4L487.8,434.4z"/>
			<path class="st0" d="M505.2,434.4h-7.9v-66.6h7.9V434.4z"/>
			<path class="st0" d="M579.1,430.3c-8.1,4.5-16.5,6.8-25.2,6.8c-10.4,0-18.9-3.5-25.4-10.4c-6.3-6.7-9.5-15.3-9.5-25.6
				c0-10,3.3-18.5,10-25.5c6.7-7,15-10.5,24.9-10.5c9,0,16.5,2.2,22.4,6.5l-0.6,8.5c-5.9-5.1-13.2-7.7-21.8-7.7
				c-7.7,0-14,2.7-19.1,8.2c-5.1,5.5-7.6,12.3-7.6,20.6c0,8.9,2.5,16,7.6,21.2c4.9,5,11.3,7.5,19.1,7.5c6.7,0,12.5-1.5,17.4-4.6
				v-17.5h-20.3v-7h28.1L579.1,430.3L579.1,430.3z"/>
			<path class="st0" d="M633.4,434.4h-38.2v-66.6h37.6v7h-29.7V396h25.6v7h-25.6v24.3h30.3L633.4,434.4L633.4,434.4z"/>
			<path class="st0" d="M701,437.5h-0.9l-46.3-53.9v50.8h-7.9v-69.7h0.9l46.3,53.8v-50.7h7.9V437.5z"/>
			<path class="st0" d="M767.4,420.9l-0.5,9.2c-5.6,4.6-12.4,6.8-20.5,6.8c-9.6,0-17.6-3.6-24.2-10.8c-6.3-7-9.5-15.4-9.5-25.2
				c0-9.7,3.2-18.1,9.8-25.3c6.5-7.1,14.5-10.7,23.9-10.7c7.5,0,14.3,2.2,20.2,6.5l-0.6,8.5c-5.9-5.1-12.4-7.7-19.6-7.7
				c-7.4,0-13.4,2.8-18.3,8.4c-4.8,5.6-7.2,12.4-7.2,20.4c0,8.2,2.4,15.1,7.3,20.6c4.9,5.5,10.9,8.2,18.2,8.2c3.9,0,8-0.9,12.1-2.8
				C762.3,425.3,765.3,423.3,767.4,420.9z"/>
			<path class="st0" d="M818.7,434.4h-38.2v-66.6h37.6v7h-29.7V396h25.6v7h-25.6v24.3h30.3L818.7,434.4L818.7,434.4z"/>
		</g>
		<g>
			<path class="st1" d="M157.5,451h-3.9V351h3.9V451z"/>
		</g>
		<g>
			<path class="st1" d="M-91.8,435l-17.3-37.5h-0.3l-17.3,37.5h-1.8l-24.6-67.1h15.3l11.8,34.6h0.2l15.7-34.6h1.8l15.8,34.6h0.3
				l11.8-34.6h14.8L-90,435L-91.8,435L-91.8,435z"/>
			<path class="st1" d="M-28.1,421.2h2.2v14.6H-28c-21.7,0-37.1-14.8-37.1-34.8c0-20.1,15.4-34.6,37.1-34.6h2.1v14.3h-2.2
				c-13.5,0-22.6,8.6-22.6,20.3C-50.7,412.9-41.6,421.2-28.1,421.2z M-3.3,394.6v27.6h-13.3v-14.8h-14.8v-12.8H-3.3z"/>
			<path class="st0" d="M4.5,415.5c4.7,4.2,12.1,7.3,18.6,7.3c6.9,0,10.9-3.3,10.9-7.6c0-4.7-5.2-6.7-12-9.4
				c-7.1-2.8-17.7-7.3-17.7-19.5c0-10.8,8.6-19.8,23.6-19.8c6.3,0,12.9,2,17.3,4.5v13.5c-4.4-3.1-11.1-5.1-16.2-5.1
				c-6.6,0-10.2,3-10.2,6.5c0,3.7,4.1,5.7,9.6,7.8c8.5,3.2,20.7,7.4,20.7,21c0,11.8-9.2,20.9-24.6,20.9c-8.1,0-15.6-2.7-20.1-6
				L4.5,415.5L4.5,415.5z"/>
			<path class="st1" d="M116.2,367.9v67h-2.8l-40.7-38.3h-0.3v37.7H58.5v-66.5h3l41,38.1v-37.9L116.2,367.9L116.2,367.9z"/>
		</g>
	</g>
</g>
</svg>
