<?xml version="1.0" encoding="utf-8"?>
<!-- Generator: Adobe Illustrator 19.1.0, SVG Export Plug-In . SVG Version: 6.00 Build 0)  -->
<svg version="1.1" id="Layer_1" xmlns="http://www.w3.org/2000/svg" xmlns:xlink="http://www.w3.org/1999/xlink" x="0px" y="0px"
	 viewBox="-282 351 713.4 100" style="enable-background:new -282 351 713.4 100;" xml:space="preserve">
<style type="text/css">
	.st0{fill:#DC9189;}
	.st1{fill:#041E41;}
</style>
<g id="Layer_1_1_">
</g>
<g id="Layer_1_2_">
	<g>
		<g>
			<path class="st0" d="M73.7,434.4h-7.9v-66.6h7.9V434.4z"/>
			<path class="st0" d="M146.4,437.5h-0.9l-46.3-53.9v50.8h-7.9v-69.7h0.9l46.3,53.8v-50.7h7.9V437.5z"/>
			<path class="st0" d="M202,417.7c0,5.3-1.7,9.7-5.2,13.2c-4.1,4.1-9.6,6.1-16.7,6.1c-3,0-6.5-0.6-10.7-1.7s-7.1-2.3-8.7-3.5
				l-0.6-9.3c7.1,4.9,13.7,7.4,19.8,7.4c4.2,0,7.6-0.9,10.2-2.9c2.9-2.2,4.4-5.4,4.4-9.4c0-5.6-3.9-10.1-11.7-13.5l-5.2-2.3
				c-11.2-4.9-16.8-11.4-16.8-19.5c0-4.9,1.7-8.9,5-12.1c3.7-3.5,8.7-5.2,14.9-5.2c3.1,0,6.2,0.5,9.4,1.5c2.9,0.9,5.2,2,6.8,3.2
				l0.1,8.3c-5.4-4.2-10.8-6.3-16.1-6.3c-4.1,0-7.3,0.9-9.5,2.9c-2.2,1.9-3.3,4.4-3.3,7.5c0,4.9,4.1,9.2,12.3,12.7l3.8,1.6
				c6.1,2.6,10.6,5.5,13.5,8.8C200.5,408.7,202,412.8,202,417.7z"/>
			<path class="st0" d="M222.4,434.4h-7.9v-66.6h7.9V434.4z"/>
			<path class="st0" d="M296.3,430.3c-8.1,4.5-16.5,6.8-25.2,6.8c-10.4,0-18.9-3.5-25.4-10.4c-6.3-6.7-9.5-15.3-9.5-25.6
				c0-10,3.3-18.5,10-25.5c6.7-7,15-10.5,24.9-10.5c9,0,16.5,2.2,22.4,6.5l-0.6,8.5c-5.9-5.1-13.2-7.7-21.8-7.7
				c-7.7,0-14,2.7-19.1,8.2c-5.1,5.5-7.6,12.3-7.6,20.6c0,8.9,2.5,16,7.6,21.2c4.9,5,11.3,7.5,19.1,7.5c6.7,0,12.5-1.5,17.4-4.6
				v-17.5h-20.3v-7h28.1L296.3,430.3L296.3,430.3z"/>
			<path class="st0" d="M366,434.4h-7.9v-31.5h-37.7v31.5h-7.9v-66.6h7.9v28.1h37.7v-28.1h7.9V434.4z"/>
			<path class="st0" d="M431.4,374.8h-24.2v59.6h-7.9v-59.6h-24.2v-7h56.2L431.4,374.8L431.4,374.8z"/>
		</g>
		<g>
			<path class="st1" d="M28.5,451h-3.9V351h3.9V451z"/>
		</g>
		<g>
			<path class="st1" d="M-220.8,435l-17.3-37.5h-0.3l-17.3,37.5h-1.8l-24.6-67.1h15.3l11.8,34.6h0.2l15.7-34.6h1.8l15.8,34.6h0.3
				l11.8-34.6h14.8L-219,435H-220.8z"/>
			<path class="st1" d="M-157.1,421.2h2.2v14.6h-2.1c-21.7,0-37.1-14.8-37.1-34.8c0-20.1,15.4-34.6,37.1-34.6h2.1v14.3h-2.2
				c-13.5,0-22.6,8.6-22.6,20.3C-179.7,412.9-170.6,421.2-157.1,421.2z M-132.3,394.6v27.6h-13.3v-14.8h-14.8v-12.8H-132.3z"/>
			<path class="st0" d="M-124.5,415.5c4.7,4.2,12.1,7.3,18.6,7.3c6.9,0,10.9-3.3,10.9-7.6c0-4.7-5.2-6.7-12-9.4
				c-7.1-2.8-17.7-7.3-17.7-19.5c0-10.8,8.6-19.8,23.6-19.8c6.3,0,12.9,2,17.3,4.5v13.5c-4.4-3.1-11.1-5.1-16.2-5.1
				c-6.6,0-10.2,3-10.2,6.5c0,3.7,4.1,5.7,9.6,7.8c8.5,3.2,20.7,7.4,20.7,21c0,11.8-9.2,20.9-24.6,20.9c-8.1,0-15.6-2.7-20.1-6
				L-124.5,415.5L-124.5,415.5z"/>
			<path class="st1" d="M-12.8,367.9v67h-2.8l-40.7-38.3h-0.3v37.7h-13.9v-66.5h3l41,38.1v-37.9L-12.8,367.9L-12.8,367.9z"/>
		</g>
	</g>
</g>
</svg>
