<?xml version="1.0" encoding="utf-8"?>
<!-- Generator: Adobe Illustrator 19.1.0, SVG Export Plug-In . SVG Version: 6.00 Build 0)  -->
<svg version="1.1" id="Layer_1" xmlns="http://www.w3.org/2000/svg" xmlns:xlink="http://www.w3.org/1999/xlink" x="0px" y="0px"
	 viewBox="-266 351 745.4 100" style="enable-background:new -266 351 745.4 100;" xml:space="preserve">
<style type="text/css">
	.st0{fill:#77777A;}
	.st1{fill:#041E41;}
</style>
<g id="Layer_1_1_">
</g>
<g id="Layer_1_2_">
	<g>
		<g>
			<path class="st0" d="M152.6,434.4h-7.9l-8.9-46.9l-20.8,49.4h-0.6l-21.2-49.7L84,434.4h-7.1l13.7-69.7h0.6l23.8,55.5l23.4-55.5
				h0.6L152.6,434.4z"/>
			<path class="st0" d="M172.8,434.4h-7.9v-66.6h7.9V434.4z"/>
			<path class="st0" d="M245.5,437.5h-0.9l-46.3-53.9v50.8h-7.9v-69.7h0.9l46.3,53.8v-50.7h7.9V437.5z"/>
			<path class="st0" d="M316.9,401.1c0,9.7-3.4,17.6-10.1,23.6c-7.2,6.5-17.1,9.7-29.9,9.7h-15.8v-66.6H277
				c12.8,0,22.7,3.2,29.9,9.7C313.6,383.5,316.9,391.4,316.9,401.1z M308.8,401.1c0-7.3-2.4-13.3-7.2-18.1
				c-5.5-5.5-13.5-8.2-24.1-8.2h-8.5v52.5h8.5c10.5,0,18.6-2.7,24.1-8.2C306.4,414.4,308.8,408.4,308.8,401.1z"/>
			<path class="st0" d="M365,417.7c0,5.3-1.7,9.7-5.2,13.2c-4.1,4.1-9.6,6.1-16.7,6.1c-3,0-6.5-0.6-10.7-1.7s-7.1-2.3-8.7-3.5
				l-0.6-9.3c7.1,4.9,13.7,7.4,19.8,7.4c4.2,0,7.6-1,10.2-2.9c2.9-2.2,4.4-5.4,4.4-9.4c0-5.6-3.9-10.1-11.7-13.5l-5.2-2.3
				c-11.2-4.9-16.8-11.4-16.8-19.5c0-4.9,1.7-8.9,5-12.1c3.7-3.5,8.7-5.2,14.9-5.2c3.1,0,6.2,0.5,9.4,1.5c2.9,0.9,5.2,2,6.8,3.2
				l0.1,8.3c-5.4-4.2-10.8-6.3-16.1-6.3c-4.1,0-7.3,1-9.5,2.9c-2.2,1.9-3.3,4.4-3.3,7.5c0,4.9,4.1,9.2,12.3,12.7l3.8,1.6
				c6.1,2.6,10.6,5.5,13.5,8.8C363.5,408.7,365,412.8,365,417.7z"/>
			<path class="st0" d="M415.6,434.4h-38.2v-66.6h37.6v7h-29.7V396H411v7h-25.6v24.3h30.3L415.6,434.4L415.6,434.4z"/>
			<path class="st0" d="M479.1,374.8H455v59.6h-7.9v-59.6h-24.2v-7h56.2L479.1,374.8L479.1,374.8z"/>
		</g>
		<g>
			<path class="st1" d="M44.5,451h-3.9V351h3.9V451z"/>
		</g>
		<g>
			<path class="st1" d="M-204.8,435l-17.3-37.5h-0.3l-17.3,37.5h-1.8l-24.6-67.1h15.3l11.8,34.6h0.2l15.7-34.6h1.8l15.8,34.6h0.3
				l11.8-34.6h14.8L-203,435H-204.8z"/>
			<path class="st1" d="M-141.1,421.2h2.2v14.6h-2.1c-21.7,0-37.1-14.8-37.1-34.8c0-20.1,15.4-34.6,37.1-34.6h2.1v14.3h-2.2
				c-13.5,0-22.6,8.6-22.6,20.3C-163.7,412.9-154.6,421.2-141.1,421.2z M-116.3,394.6v27.6h-13.3v-14.8h-14.8v-12.8L-116.3,394.6
				L-116.3,394.6z"/>
			<path class="st0" d="M-108.5,415.5c4.7,4.2,12.1,7.3,18.6,7.3c6.9,0,10.9-3.3,10.9-7.6c0-4.7-5.2-6.7-12-9.4
				c-7.1-2.8-17.7-7.3-17.7-19.5c0-10.8,8.6-19.8,23.6-19.8c6.3,0,12.9,2,17.3,4.5v13.5c-4.4-3.1-11.1-5.1-16.2-5.1
				c-6.6,0-10.2,3-10.2,6.5c0,3.7,4.1,5.7,9.6,7.8c8.5,3.2,20.7,7.4,20.7,21c0,11.8-9.2,20.9-24.6,20.9c-8.1,0-15.6-2.7-20.1-6
				L-108.5,415.5L-108.5,415.5z"/>
			<path class="st1" d="M3.2,367.9v67H0.4l-40.7-38.3h-0.3v37.7h-13.9v-66.5h3l41,38.1v-37.9L3.2,367.9L3.2,367.9z"/>
		</g>
	</g>
</g>
</svg>
