<?xml version="1.0" encoding="utf-8"?>
<!-- Generator: Adobe Illustrator 19.1.0, SVG Export Plug-In . SVG Version: 6.00 Build 0)  -->
<svg version="1.1" id="Layer_1" xmlns="http://www.w3.org/2000/svg" xmlns:xlink="http://www.w3.org/1999/xlink" x="0px" y="0px"
	 viewBox="-203 351 872.5 100" style="enable-background:new -203 351 872.5 100;" xml:space="preserve">
<style type="text/css">
	.st0{fill:#2F7DE1;}
	.st1{fill:#041E41;}
</style>
<g id="Layer_1_1_">
</g>
<g id="Layer_1_2_">
	<g>
		<g>
			<path class="st0" d="M185.4,417.7c0,5.3-1.7,9.7-5.2,13.2c-4.1,4.1-9.6,6.1-16.7,6.1c-3,0-6.5-0.6-10.7-1.7
				c-4.2-1.1-7.1-2.3-8.7-3.5l-0.6-9.3c7.1,4.9,13.7,7.4,19.8,7.4c4.2,0,7.6-1,10.2-2.9c2.9-2.2,4.4-5.4,4.4-9.4
				c0-5.6-3.9-10.1-11.7-13.5l-5.2-2.3c-11.2-4.9-16.8-11.4-16.8-19.5c0-4.9,1.7-8.9,5-12.1c3.7-3.5,8.7-5.2,14.9-5.2
				c3.1,0,6.2,0.5,9.4,1.5c2.9,0.9,5.2,2,6.8,3.2l0.1,8.3c-5.4-4.2-10.8-6.3-16.1-6.3c-4.1,0-7.3,1-9.5,2.9
				c-2.2,1.9-3.3,4.4-3.3,7.5c0,4.9,4.1,9.2,12.3,12.7l3.8,1.6c6.1,2.6,10.6,5.5,13.5,8.8C183.9,408.7,185.4,412.8,185.4,417.7z"/>
			<path class="st0" d="M243.7,374.8h-24.2v59.6h-7.9v-59.6h-24.2v-7h56.2V374.8z"/>
			<path class="st0" d="M309.3,367.8l-27.6,36.9v29.7h-7.9v-29.1l-25.6-37.5h8.8l20.8,30.9l22.9-30.9L309.3,367.8L309.3,367.8z"/>
			<path class="st0" d="M357.7,434.4h-39.8v-66.6h7.9v59.6h31.9L357.7,434.4L357.7,434.4z"/>
			<path class="st0" d="M405.3,434.4h-38.2v-66.6h37.6v7H375V396h25.6v7H375v24.3h30.3L405.3,434.4L405.3,434.4z"/>
			<path class="st0" d="M468.8,374.8h-24.2v59.6h-7.9v-59.6h-24.2v-7h56.2L468.8,374.8L468.8,374.8z"/>
			<path class="st0" d="M528.4,434.4h-10L495,406.9h-9.1v27.5H478v-66.6h18.3c8.1,0,14.4,1.8,18.9,5.4c4.3,3.5,6.5,8.1,6.5,13.8
				c0,5.9-2.1,10.5-6.3,13.9c-3.1,2.5-6.9,4.1-11.5,4.8L528.4,434.4z M513.8,387c0-4.1-1.6-7.2-4.7-9.4c-3.1-2.2-7.5-3.3-13-3.3
				h-10.2v26.5h8.1C507.2,400.7,513.8,396.1,513.8,387z"/>
			<path class="st0" d="M546.3,434.4h-7.9v-66.6h7.9V434.4z"/>
			<path class="st0" d="M620.2,434.4h-8.4l-7.5-16.7h-32.8l-7.7,16.7h-8l32-68.3h0.9L620.2,434.4z M601.2,410.6L588,381.4
				l-13.3,29.2H601.2z"/>
			<path class="st0" d="M669.5,434.4h-39.8v-66.6h7.9v59.6h31.9L669.5,434.4L669.5,434.4z"/>
		</g>
		<g>
			<path class="st1" d="M107.5,451h-3.9V351h3.9V451z"/>
		</g>
		<g>
			<path class="st1" d="M-141.8,435l-17.3-37.5h-0.3l-17.3,37.5h-1.8l-24.6-67.1h15.3l11.8,34.6h0.2l15.7-34.6h1.8l15.8,34.6h0.3
				l11.8-34.6h14.8L-140,435L-141.8,435L-141.8,435z"/>
			<path class="st1" d="M-78.1,421.2h2.2v14.6H-78c-21.7,0-37.1-14.8-37.1-34.8c0-20.1,15.4-34.6,37.1-34.6h2.1v14.3h-2.2
				c-13.5,0-22.6,8.6-22.6,20.3C-100.7,412.9-91.6,421.2-78.1,421.2z M-53.3,394.6v27.6h-13.3v-14.8h-14.8v-12.8L-53.3,394.6
				L-53.3,394.6z"/>
			<path class="st0" d="M-45.5,415.5c4.7,4.2,12.1,7.3,18.6,7.3c6.9,0,10.9-3.3,10.9-7.6c0-4.7-5.2-6.7-12-9.4
				c-7.1-2.8-17.7-7.3-17.7-19.5c0-10.8,8.6-19.8,23.6-19.8c6.3,0,12.9,2,17.3,4.5v13.5c-4.4-3.1-11.1-5.1-16.2-5.1
				c-6.6,0-10.2,3-10.2,6.5c0,3.7,4.1,5.7,9.6,7.8c8.5,3.2,20.7,7.4,20.7,21c0,11.8-9.2,20.9-24.6,20.9c-8.1,0-15.6-2.7-20.1-6
				L-45.5,415.5L-45.5,415.5z"/>
			<path class="st1" d="M66.2,367.9v67h-2.8l-40.7-38.3h-0.3v37.7H8.5v-66.5h3l41,38.1v-37.9L66.2,367.9L66.2,367.9z"/>
		</g>
	</g>
</g>
</svg>
