<?xml version="1.0" encoding="utf-8"?>
<!-- Generator: Adobe Illustrator 19.1.0, SVG Export Plug-In . SVG Version: 6.00 Build 0)  -->
<svg version="1.1" id="Layer_1" xmlns="http://www.w3.org/2000/svg" xmlns:xlink="http://www.w3.org/1999/xlink" x="0px" y="0px"
	 viewBox="52 351 1383.2 100" style="enable-background:new 52 351 1383.2 100;" xml:space="preserve">
<style type="text/css">
	.st0{fill:#4A7628;}
	.st1{fill:#041E41;}
</style>
<g id="Layer_1_1_">
</g>
<g id="Layer_1_2_">
	<g>
		<g>
			<path class="st0" d="M439.6,434.4h-39.8v-66.6h7.9v59.6h31.9V434.4z"/>
			<path class="st0" d="M457,434.4h-7.9v-66.6h7.9V434.4z"/>
			<path class="st0" d="M512.7,374.8h-30.3V398h27.2v7h-27.2v29.3h-7.9v-66.6h38.2L512.7,374.8L512.7,374.8z"/>
			<path class="st0" d="M562.2,434.4H524v-66.6h37.6v7h-29.7V396h25.6v7h-25.6v24.3h30.3V434.4z"/>
			<path class="st0" d="M613.7,417.7c0,5.3-1.7,9.7-5.2,13.2c-4.1,4.1-9.6,6.1-16.7,6.1c-3,0-6.5-0.6-10.7-1.7
				c-4.2-1.1-7.1-2.3-8.7-3.5l-0.6-9.3c7.1,4.9,13.7,7.4,19.8,7.4c4.2,0,7.6-1,10.2-2.9c2.9-2.2,4.4-5.4,4.4-9.4
				c0-5.6-3.9-10.1-11.7-13.5l-5.2-2.3c-11.2-4.9-16.8-11.4-16.8-19.5c0-4.9,1.7-8.9,5-12.1c3.7-3.5,8.7-5.2,14.9-5.2
				c3.1,0,6.2,0.5,9.4,1.5c2.9,0.9,5.2,2,6.8,3.2l0.1,8.3c-5.4-4.2-10.8-6.3-16.1-6.3c-4.1,0-7.3,1-9.5,2.9
				c-2.2,1.9-3.3,4.4-3.3,7.5c0,4.9,4.1,9.2,12.3,12.7l3.8,1.6c6.1,2.6,10.6,5.5,13.5,8.8C612.2,408.7,613.7,412.8,613.7,417.7z"/>
			<path class="st0" d="M674,374.8h-24.2v59.6h-7.9v-59.6h-24.2v-7H674L674,374.8L674,374.8z"/>
			<path class="st0" d="M739.6,367.8L712,404.7v29.7h-7.9v-29.1l-25.6-37.5h8.8l20.8,30.9l22.9-30.9L739.6,367.8L739.6,367.8z"/>
			<path class="st0" d="M788,434.4h-39.8v-66.6h7.9v59.6H788L788,434.4L788,434.4z"/>
			<path class="st0" d="M835.6,434.4h-38.2v-66.6H835v7h-29.7V396h25.6v7h-25.6v24.3h30.3L835.6,434.4L835.6,434.4z"/>
			<path class="st0" d="M930.9,434.4h-9.8l-3.8-4.8c-6.7,4.9-13.9,7.4-21.7,7.4c-7,0-12.4-2-16.2-5.9c-3.6-3.7-5.4-8.5-5.4-14.5
				c0-4.8,1.6-9.1,4.7-12.8c2.3-2.7,5.9-5.5,10.9-8.5l-1.9-2.4c-3.8-4.8-5.7-9-5.7-12.7c0-4.5,1.4-8.2,4.2-11
				c2.8-2.8,6.4-4.2,10.8-4.2c4.1,0,7.7,1.3,10.6,3.9s4.4,6,4.4,10.1c0,3.7-0.7,6.8-2.2,9.2c-1.6,2.9-4.3,5.5-8.3,7.8l-1,0.6
				l17.4,21.6c2.6-2.8,4.6-5.7,6.1-8.8l4.3,8.2c-1.7,2.5-3.5,4.7-5.4,6.8L930.9,434.4z M912.3,423.5l-18.5-22.7l-0.9,0.5
				c-7.6,4.2-11.4,9.2-11.4,14.8c0,3.6,1.3,6.8,3.8,9.5c2.8,2.9,6.3,4.4,10.5,4.4C901.1,430,906.6,427.8,912.3,423.5z M904.8,379.2
				c0-2.2-0.8-3.9-2.2-5.4c-1.5-1.4-3.3-2.1-5.4-2.1c-2.4,0-4.2,0.8-5.6,2.3c-1.3,1.5-2,3.5-2,5.8c0,2.3,1.6,5.3,4.7,9.1l2.1,2.6
				l1.3-0.8C902.5,388,904.8,384.2,904.8,379.2z"/>
			<path class="st0" d="M977,434.4h-7.9v-66.6h7.9V434.4z"/>
			<path class="st0" d="M1049.7,437.5h-0.9l-46.3-53.9v50.8h-7.9v-69.7h0.9l46.3,53.8v-50.7h7.9V437.5z"/>
			<path class="st0" d="M1113.2,374.8h-24.2v59.6h-7.9v-59.6H1057v-7h56.2V374.8z"/>
			<path class="st0" d="M1160.6,434.4h-38.2v-66.6h37.6v7h-29.7V396h25.6v7h-25.6v24.3h30.3L1160.6,434.4L1160.6,434.4z"/>
			<path class="st0" d="M1223.6,434.4h-10l-23.4-27.5h-9.1v27.5h-7.9v-66.6h18.3c8.1,0,14.4,1.8,18.9,5.4c4.3,3.5,6.5,8.1,6.5,13.8
				c0,5.9-2.1,10.5-6.3,13.9c-3.1,2.5-6.9,4.1-11.5,4.8L1223.6,434.4z M1208.9,387c0-4.1-1.6-7.2-4.7-9.4c-3.1-2.2-7.5-3.3-13-3.3
				H1181v26.5h8.1C1202.3,400.7,1208.9,396.1,1208.9,387z"/>
			<path class="st0" d="M1241.4,434.4h-7.9v-66.6h7.9V434.4z"/>
			<path class="st0" d="M1322.4,401.1c0,9.7-3.3,18.1-9.9,25.3c-6.6,7.1-14.5,10.7-23.8,10.7c-9.3,0-17.3-3.6-23.8-10.8
				c-6.6-7.2-9.8-15.6-9.8-25.2c0-9.7,3.2-18.1,9.8-25.3c6.5-7.1,14.5-10.7,23.9-10.7c9.4,0,17.3,3.6,23.9,10.8
				C1319.1,383.2,1322.4,391.5,1322.4,401.1z M1314.2,401.1c0-7.7-2.5-14.4-7.5-20.1c-5-5.7-11-8.6-18-8.6c-7.4,0-13.4,2.8-18.3,8.4
				c-4.8,5.6-7.2,12.4-7.2,20.4c0,7.9,2.5,14.7,7.5,20.3c5,5.6,11,8.4,18,8.4c7,0,13-2.8,18-8.5
				C1311.7,415.7,1314.2,408.9,1314.2,401.1z"/>
			<path class="st0" d="M1386.2,434.4h-10l-23.4-27.5h-9.1v27.5h-7.9v-66.6h18.3c8.1,0,14.4,1.8,18.9,5.4c4.3,3.5,6.5,8.1,6.5,13.8
				c0,5.9-2.1,10.5-6.3,13.9c-3.1,2.5-6.9,4.1-11.5,4.8L1386.2,434.4z M1371.6,387c0-4.1-1.6-7.2-4.7-9.4c-3.1-2.2-7.5-3.3-13-3.3
				h-10.2v26.5h8.1C1365,400.7,1371.6,396.1,1371.6,387z"/>
			<path class="st0" d="M1435.2,417.7c0,5.3-1.7,9.7-5.2,13.2c-4.1,4.1-9.6,6.1-16.7,6.1c-3,0-6.5-0.6-10.7-1.7
				c-4.2-1.1-7.1-2.3-8.7-3.5l-0.6-9.3c7.1,4.9,13.7,7.4,19.8,7.4c4.2,0,7.6-1,10.2-2.9c2.9-2.2,4.4-5.4,4.4-9.4
				c0-5.6-3.9-10.1-11.7-13.5l-5.2-2.3c-11.2-4.9-16.8-11.4-16.8-19.5c0-4.9,1.7-8.9,5-12.1c3.7-3.5,8.7-5.2,14.9-5.2
				c3.1,0,6.2,0.5,9.4,1.5c2.9,0.9,5.2,2,6.8,3.2l0.1,8.3c-5.4-4.2-10.8-6.3-16.1-6.3c-4.1,0-7.3,1-9.5,2.9
				c-2.2,1.9-3.3,4.4-3.3,7.5c0,4.9,4.1,9.2,12.3,12.7l3.8,1.6c6.1,2.6,10.6,5.5,13.5,8.8C1433.7,408.7,1435.2,412.8,1435.2,417.7z"
				/>
		</g>
		<g>
			<path class="st1" d="M362.5,451h-3.9V351h3.9V451z"/>
		</g>
		<g>
			<path class="st1" d="M113.2,435l-17.3-37.5h-0.3L78.4,435h-1.8L52,367.9h15.3l11.8,34.6h0.2l15.7-34.6h1.8l15.8,34.6h0.3
				l11.8-34.6h14.8L115,435L113.2,435L113.2,435z"/>
			<path class="st1" d="M176.9,421.2h2.2v14.6H177c-21.7,0-37.1-14.8-37.1-34.8c0-20.1,15.4-34.6,37.1-34.6h2.1v14.3h-2.2
				c-13.5,0-22.6,8.6-22.6,20.3C154.3,412.9,163.4,421.2,176.9,421.2z M201.7,394.6v27.6h-13.3v-14.8h-14.8v-12.8H201.7z"/>
			<path class="st0" d="M209.5,415.5c4.7,4.2,12.1,7.3,18.6,7.3c6.9,0,10.9-3.3,10.9-7.6c0-4.7-5.2-6.7-12-9.4
				c-7.1-2.8-17.7-7.3-17.7-19.5c0-10.8,8.6-19.8,23.6-19.8c6.3,0,12.9,2,17.3,4.5v13.5c-4.4-3.1-11.1-5.1-16.2-5.1
				c-6.6,0-10.2,3-10.2,6.5c0,3.7,4.1,5.7,9.6,7.8c8.5,3.2,20.7,7.4,20.7,21c0,11.8-9.2,20.9-24.6,20.9c-8.1,0-15.6-2.7-20.1-6
				L209.5,415.5L209.5,415.5z"/>
			<path class="st1" d="M321.2,367.9v67h-2.8l-40.7-38.3h-0.3v37.7h-13.9v-66.5h3l41,38.1v-37.9L321.2,367.9L321.2,367.9z"/>
		</g>
	</g>
</g>
</svg>
