<?xml version="1.0" encoding="utf-8"?>
<!-- Generator: Adobe Illustrator 19.1.0, SVG Export Plug-In . SVG Version: 6.00 Build 0)  -->
<svg version="1.1" id="Layer_1" xmlns="http://www.w3.org/2000/svg" xmlns:xlink="http://www.w3.org/1999/xlink" x="0px" y="0px"
	 viewBox="-267 351 743.5 100" style="enable-background:new -267 351 743.5 100;" xml:space="preserve">
<style type="text/css">
	.st0{fill:#4F86A0;}
	.st1{fill:#041E41;}
</style>
<g id="Layer_1_1_">
</g>
<g id="Layer_1_2_">
	<g>
		<g>
			<path class="st0" d="M88.7,434.4h-7.9v-66.6h7.9V434.4z"/>
			<path class="st0" d="M161.4,437.5h-0.9l-46.3-53.9v50.8h-7.9v-69.7h0.9l46.3,53.8v-50.7h7.9V437.5z"/>
			<path class="st0" d="M217,417.7c0,5.3-1.7,9.7-5.2,13.2c-4.1,4.1-9.6,6.1-16.7,6.1c-3,0-6.5-0.6-10.7-1.7
				c-4.2-1.1-7.1-2.3-8.7-3.5l-0.6-9.3c7.1,4.9,13.7,7.4,19.8,7.4c4.2,0,7.6-1,10.2-2.9c2.9-2.2,4.4-5.4,4.4-9.4
				c0-5.6-3.9-10.1-11.7-13.5l-5.2-2.3c-11.2-4.9-16.8-11.4-16.8-19.5c0-4.9,1.7-8.9,5-12.1c3.7-3.5,8.7-5.2,14.9-5.2
				c3.1,0,6.2,0.5,9.4,1.5c2.9,0.9,5.2,2,6.8,3.2l0.1,8.3c-5.4-4.2-10.8-6.3-16.1-6.3c-4.1,0-7.3,1-9.5,2.9
				c-2.2,1.9-3.3,4.4-3.3,7.5c0,4.9,4.1,9.2,12.3,12.7l3.8,1.6c6.1,2.6,10.6,5.5,13.5,8.8C215.5,408.7,217,412.8,217,417.7z"/>
			<path class="st0" d="M277.3,374.8h-24.2v59.6h-7.9v-59.6h-24.2v-7h56.2V374.8z"/>
			<path class="st0" d="M344.9,401.1c0,9.7-3.3,18.1-9.9,25.3c-6.6,7.1-14.5,10.7-23.8,10.7c-9.3,0-17.3-3.6-23.8-10.8
				c-6.6-7.2-9.8-15.6-9.8-25.2c0-9.7,3.2-18.1,9.8-25.3c6.5-7.1,14.5-10.7,23.9-10.7c9.4,0,17.3,3.6,23.9,10.8
				C341.7,383.2,344.9,391.6,344.9,401.1z M336.8,401.1c0-7.7-2.5-14.4-7.5-20.1c-5-5.7-11-8.6-18-8.6c-7.4,0-13.4,2.8-18.3,8.4
				c-4.8,5.6-7.2,12.4-7.2,20.4c0,7.9,2.5,14.7,7.5,20.3c5,5.6,11,8.4,18,8.4c7,0,13-2.8,18-8.5
				C334.3,415.7,336.8,408.9,336.8,401.1z"/>
			<path class="st0" d="M409,420.9l-0.5,9.2c-5.6,4.6-12.4,6.8-20.5,6.8c-9.6,0-17.6-3.6-24.2-10.8c-6.3-7-9.5-15.4-9.5-25.2
				c0-9.7,3.2-18.1,9.8-25.3c6.5-7.1,14.5-10.7,23.9-10.7c7.5,0,14.3,2.2,20.2,6.5l-0.6,8.5c-5.9-5.1-12.4-7.7-19.6-7.7
				c-7.4,0-13.4,2.8-18.3,8.4c-4.8,5.6-7.2,12.4-7.2,20.4c0,8.2,2.4,15.1,7.3,20.5c4.9,5.5,10.9,8.2,18.2,8.2c3.9,0,8-0.9,12.1-2.8
				C403.9,425.3,406.8,423.3,409,420.9z"/>
			<path class="st0" d="M477.2,434.4h-10.9l-36.2-34v34h-7.9v-66.6h7.9v32.1l32.3-32.1h10.2l-32.2,31.9L477.2,434.4z"/>
		</g>
		<g>
			<path class="st1" d="M43.5,451h-3.9V351h3.9V451z"/>
		</g>
		<g>
			<path class="st1" d="M-205.8,435l-17.3-37.5h-0.3l-17.3,37.5h-1.8l-24.6-67.1h15.3l11.8,34.6h0.2l15.7-34.6h1.8l15.8,34.6h0.3
				l11.8-34.6h14.8L-204,435H-205.8z"/>
			<path class="st1" d="M-142.1,421.2h2.2v14.6h-2.1c-21.7,0-37.1-14.8-37.1-34.8c0-20.1,15.4-34.6,37.1-34.6h2.1v14.3h-2.2
				c-13.5,0-22.6,8.6-22.6,20.3C-164.7,412.9-155.6,421.2-142.1,421.2z M-117.3,394.6v27.6h-13.3v-14.8h-14.8v-12.8H-117.3z"/>
			<path class="st0" d="M-109.5,415.5c4.7,4.2,12.1,7.3,18.6,7.3c6.9,0,10.9-3.3,10.9-7.6c0-4.7-5.2-6.7-12-9.4
				c-7.1-2.8-17.7-7.3-17.7-19.5c0-10.8,8.6-19.8,23.6-19.8c6.3,0,12.9,2,17.3,4.5v13.5c-4.4-3.1-11.1-5.1-16.2-5.1
				c-6.6,0-10.2,3-10.2,6.5c0,3.7,4.1,5.7,9.6,7.8c8.5,3.2,20.7,7.4,20.7,21c0,11.8-9.2,20.9-24.6,20.9c-8.1,0-15.6-2.7-20.1-6
				L-109.5,415.5L-109.5,415.5z"/>
			<path class="st1" d="M2.2,367.9v67h-2.8l-40.7-38.3h-0.3v37.7h-13.9v-66.5h3l41,38.1v-37.9L2.2,367.9L2.2,367.9z"/>
		</g>
	</g>
</g>
</svg>
