<?xml version="1.0" encoding="utf-8"?>
<!-- Generator: Adobe Illustrator 19.1.0, SVG Export Plug-In . SVG Version: 6.00 Build 0)  -->
<svg version="1.1" id="Layer_1" xmlns="http://www.w3.org/2000/svg" xmlns:xlink="http://www.w3.org/1999/xlink" x="0px" y="0px"
	 viewBox="-270 351 738.5 100" style="enable-background:new -270 351 738.5 100;" xml:space="preserve">
<style type="text/css">
	.st0{fill:#FF671B;}
	.st1{fill:#041E41;}
</style>
<g id="Layer_1_1_">
</g>
<g id="Layer_1_2_">
	<g>
		<g>
			<path class="st0" d="M116,374.8H85.7V398h27.2v7H85.7v29.3h-7.9v-66.6H116L116,374.8L116,374.8z"/>
			<path class="st0" d="M179,434.4h-8.4l-7.5-16.7h-32.8l-7.7,16.7h-8l32-68.3h0.9L179,434.4z M159.9,410.6l-13.1-29.2l-13.3,29.2
				H159.9L159.9,410.6z"/>
			<path class="st0" d="M225.9,417.7c0,5.3-1.7,9.7-5.2,13.2c-4.1,4.1-9.6,6.1-16.7,6.1c-3,0-6.5-0.6-10.7-1.7
				c-4.2-1.1-7.1-2.3-8.7-3.5l-0.6-9.3c7.1,4.9,13.7,7.4,19.8,7.4c4.2,0,7.6-1,10.2-2.9c2.9-2.2,4.4-5.4,4.4-9.4
				c0-5.6-3.9-10.1-11.7-13.5l-5.2-2.3c-11.2-4.9-16.8-11.4-16.8-19.5c0-4.9,1.7-8.9,5-12.1c3.7-3.5,8.7-5.2,14.9-5.2
				c3.1,0,6.2,0.5,9.4,1.5c2.9,0.9,5.2,2,6.8,3.2l0.1,8.3c-5.4-4.2-10.8-6.3-16.1-6.3c-4.1,0-7.3,0.9-9.5,2.9
				c-2.2,1.9-3.3,4.4-3.3,7.5c0,4.9,4.1,9.2,12.3,12.7l3.8,1.6c6.1,2.6,10.6,5.5,13.5,8.8C224.3,408.7,225.9,412.8,225.9,417.7z"/>
			<path class="st0" d="M291.6,434.4h-7.9v-31.5h-37.7v31.5h-7.9v-66.6h7.9v28.1h37.7v-28.1h7.9V434.4z"/>
			<path class="st0" d="M319.1,434.4h-7.9v-66.6h7.9V434.4z"/>
			<path class="st0" d="M400.2,401.1c0,9.7-3.3,18.1-9.9,25.3c-6.6,7.1-14.5,10.7-23.8,10.7c-9.3,0-17.3-3.6-23.8-10.8
				c-6.6-7.2-9.8-15.6-9.8-25.2c0-9.7,3.2-18.1,9.8-25.3c6.5-7.1,14.5-10.7,23.9-10.7c9.4,0,17.3,3.6,23.9,10.8
				C396.9,383.2,400.2,391.6,400.2,401.1z M392,401.1c0-7.7-2.5-14.4-7.5-20.1c-5-5.7-11-8.6-18-8.6c-7.4,0-13.4,2.8-18.3,8.4
				c-4.8,5.6-7.2,12.4-7.2,20.4c0,7.9,2.5,14.7,7.5,20.3c5,5.6,11,8.4,18,8.4c7,0,13-2.8,18-8.5C389.5,415.7,392,408.9,392,401.1z"
				/>
			<path class="st0" d="M468.5,437.5h-0.9l-46.3-53.9v50.8h-7.9v-69.7h0.9l46.3,53.8v-50.7h7.9V437.5z"/>
		</g>
		<g>
			<path class="st1" d="M40.5,451h-3.9V351h3.9V451z"/>
		</g>
		<g>
			<path class="st1" d="M-208.8,435l-17.3-37.5h-0.3l-17.3,37.5h-1.8l-24.6-67.1h15.3l11.8,34.6h0.2l15.7-34.6h1.8l15.8,34.6h0.3
				l11.8-34.6h14.8L-207,435H-208.8z"/>
			<path class="st1" d="M-145.1,421.2h2.2v14.6h-2.1c-21.7,0-37.1-14.8-37.1-34.8c0-20.1,15.4-34.6,37.1-34.6h2.1v14.3h-2.2
				c-13.5,0-22.6,8.6-22.6,20.3C-167.7,412.9-158.6,421.2-145.1,421.2z M-120.3,394.6v27.6h-13.3v-14.8h-14.8v-12.8H-120.3z"/>
			<path class="st0" d="M-112.5,415.5c4.7,4.2,12.1,7.3,18.6,7.3c6.9,0,10.9-3.3,10.9-7.6c0-4.7-5.2-6.7-12-9.4
				c-7.1-2.8-17.7-7.3-17.7-19.5c0-10.8,8.6-19.8,23.6-19.8c6.3,0,12.9,2,17.3,4.5v13.5c-4.4-3.1-11.1-5.1-16.2-5.1
				c-6.6,0-10.2,3-10.2,6.5c0,3.7,4.1,5.7,9.6,7.8c8.5,3.2,20.7,7.4,20.7,21c0,11.8-9.2,20.9-24.6,20.9c-8.1,0-15.6-2.7-20.1-6
				L-112.5,415.5L-112.5,415.5z"/>
			<path class="st1" d="M-0.8,367.9v67h-2.8l-40.7-38.3h-0.3v37.7h-13.9v-66.5h3l41,38.1v-37.9H-0.8z"/>
		</g>
	</g>
</g>
</svg>
