<?xml version="1.0" encoding="utf-8"?>
<!-- Generator: Adobe Illustrator 19.1.0, SVG Export Plug-In . SVG Version: 6.00 Build 0)  -->
<svg version="1.1" id="Layer_1" xmlns="http://www.w3.org/2000/svg" xmlns:xlink="http://www.w3.org/1999/xlink" x="0px" y="0px"
	 viewBox="-504 351 269.2 100" style="enable-background:new -504 351 269.2 100;" xml:space="preserve">
<style type="text/css">
	.st0{fill:#041E41;}
</style>
<g id="Layer_1_1_">
</g>
<g id="Layer_1_2_">
	<g>
		<path class="st0" d="M-442.8,434.9l-17.3-37.5h-0.3l-17.3,37.5h-1.8l-24.6-67.1h15.3l11.8,34.6h0.2l15.7-34.6h1.8l15.8,34.6h0.3
			l11.8-34.6h14.8l-24.5,67.1H-442.8z"/>
		<path class="st0" d="M-379.1,421.1h2.2v14.6h-2.1c-21.7,0-37.1-14.8-37.1-34.8c0-20.1,15.4-34.6,37.1-34.6h2.1v14.3h-2.2
			c-13.5,0-22.6,8.6-22.6,20.3C-401.7,412.7-392.6,421.1-379.1,421.1z M-354.3,394.5v27.6h-13.3v-14.8h-14.8v-12.8H-354.3z"/>
		<path class="st0" d="M-346.5,415.4c4.7,4.2,12.1,7.3,18.6,7.3c6.9,0,10.9-3.3,10.9-7.6c0-4.7-5.2-6.7-12-9.4
			c-7.1-2.8-17.7-7.3-17.7-19.5c0-10.8,8.6-19.8,23.6-19.8c6.3,0,12.9,2,17.3,4.5v13.5c-4.4-3.1-11.1-5.1-16.2-5.1
			c-6.6,0-10.2,3-10.2,6.5c0,3.7,4.1,5.7,9.6,7.8c8.5,3.2,20.7,7.4,20.7,21c0,11.8-9.2,20.9-24.6,20.9c-8.1,0-15.6-2.7-20.1-6
			L-346.5,415.4L-346.5,415.4z"/>
		<path class="st0" d="M-234.8,367.8v67h-2.8l-40.7-38.3h-0.3v37.7h-13.9v-66.5h3l41,38.1v-37.9H-234.8z"/>
	</g>
</g>
</svg>
