<?xml version="1.0" encoding="utf-8"?>
<!-- Generator: Adobe Illustrator 19.1.0, SVG Export Plug-In . SVG Version: 6.00 Build 0)  -->
<svg version="1.1" id="Layer_1" xmlns="http://www.w3.org/2000/svg" xmlns:xlink="http://www.w3.org/1999/xlink" x="0px" y="0px"
	 viewBox="-200 351 877.5 100" style="enable-background:new -200 351 877.5 100;" xml:space="preserve">
<style type="text/css">
	.st0{fill:#BB7726;}
	.st1{fill:#041E41;}
</style>
<g id="Layer_1_1_">
</g>
<g id="Layer_1_2_">
	<g>
		<g>
			<path class="st0" d="M196.3,374.8h-24.2v59.6h-7.9v-59.6h-24.2v-7h56.2V374.8z"/>
			<path class="st0" d="M259,434.4h-7.9v-31.5h-37.7v31.5h-7.9v-66.6h7.9v28.1h37.7v-28.1h7.9V434.4z"/>
			<path class="st0" d="M284.5,434.4h-7.9v-66.6h7.9V434.4z"/>
			<path class="st0" d="M357.1,437.5h-0.9l-46.3-53.9v50.8H302v-69.7h0.9l46.3,53.8v-50.7h7.9V437.5z"/>
			<path class="st0" d="M429.9,434.4h-10.9l-36.2-34v34h-7.9v-66.6h7.9v32.1l32.3-32.1h10.2L393,399.6L429.9,434.4z"/>
			<path class="st0" d="M485.4,374.8h-24.2v59.6h-7.9v-59.6h-24.2v-7h56.2L485.4,374.8L485.4,374.8z"/>
			<path class="st0" d="M542,434.4h-8.4l-7.5-16.7h-32.8l-7.7,16.7h-8l32-68.3h0.9L542,434.4z M523,410.6l-13.1-29.2l-13.3,29.2H523
				z"/>
			<path class="st0" d="M604.7,437.5h-0.9l-46.3-53.9v50.8h-7.9v-69.7h0.9l46.3,53.8v-50.7h7.9V437.5z"/>
			<path class="st0" d="M677.5,434.4h-10.9l-36.2-34v34h-7.9v-66.6h7.9v32.1l32.3-32.1h10.2l-32.2,31.9L677.5,434.4z"/>
		</g>
		<g>
			<path class="st1" d="M110.5,451h-3.9V351h3.9V451z"/>
		</g>
		<g>
			<path class="st1" d="M-138.8,435l-17.3-37.5h-0.3l-17.3,37.5h-1.8l-24.6-67.1h15.3l11.8,34.6h0.2l15.7-34.6h1.8l15.8,34.6h0.3
				l11.8-34.6h14.8L-137,435H-138.8z"/>
			<path class="st1" d="M-75.1,421.2h2.2v14.6H-75c-21.7,0-37.1-14.8-37.1-34.8c0-20.1,15.4-34.6,37.1-34.6h2.1v14.3h-2.2
				c-13.5,0-22.6,8.6-22.6,20.3C-97.7,412.9-88.6,421.2-75.1,421.2z M-50.3,394.6v27.6h-13.3v-14.8h-14.8v-12.8H-50.3z"/>
			<path class="st0" d="M-42.5,415.5c4.7,4.2,12.1,7.3,18.6,7.3c6.9,0,10.9-3.3,10.9-7.6c0-4.7-5.2-6.7-12-9.4
				c-7.1-2.8-17.7-7.3-17.7-19.5c0-10.8,8.6-19.8,23.6-19.8c6.3,0,12.9,2,17.3,4.5v13.5c-4.4-3.1-11.1-5.1-16.2-5.1
				c-6.6,0-10.2,3-10.2,6.5c0,3.7,4.1,5.7,9.6,7.8c8.5,3.2,20.7,7.4,20.7,21c0,11.8-9.2,20.9-24.6,20.9c-8.1,0-15.6-2.7-20.1-6
				L-42.5,415.5L-42.5,415.5z"/>
			<path class="st1" d="M69.2,367.9v67h-2.8l-40.7-38.3h-0.3v37.7H11.5v-66.5h3l41,38.1v-37.9L69.2,367.9L69.2,367.9z"/>
		</g>
	</g>
</g>
</svg>
