<svg xmlns="http://www.w3.org/2000/svg" viewBox="0 0 32 32"><title>symbol-heart</title><path d="M23.35,2.76c.39,0,.81,0,1.26.06,2.34.23,5,2.44,5.4,6.77v1.66c-.45,5.23-5.16,11.12-14,17.53C7.16,22.38,2.45,16.49,2,11.26V9.59C2.38,5.27,5.05,3,7.4,2.82c.44,0,.86-.06,1.25-.06,2.68,0,3.91,1,5.82,3.22A2,2,0,0,0,16,6.7h0A2,2,0,0,0,17.53,6c1.9-2.27,3.13-3.22,5.81-3.22m0-2C19.72.76,18,2.32,16,4.7,14,2.32,12.27.76,8.65.76Q8,.76,7.2.83C4.07,1.14.44,4,0,9.51v1.83C.41,16.6,4.39,23.1,16,31.24,27.62,23.1,31.59,16.6,32,11.34V9.51C31.56,4,27.93,1.14,24.8.83Q24,.76,23.35.76Z"/></svg>