<svg xmlns="http://www.w3.org/2000/svg" viewBox="0 0 777 200"><title>wgsn-logo</title><path d="M177.12,197.69,127.26,89.63h-.86L76.54,197.69H71.35L.46,4.32H44.55l34,99.71h.58L124.38,4.32h5.19L175.1,104H176L210,4.32h42.65L182,197.69Z"/><path d="M360.69,157.93H367V200H361c-62.54,0-106.92-42.65-106.92-100.29C254.06,41.79,298.44,0,361,0H367V41.21h-6.34c-38.9,0-65.13,24.78-65.13,58.5C295.56,133.72,321.79,157.93,360.69,157.93Zm71.47-76.66v79.54H393.83V118.16H351.18V81.27h81Z"/><path d="M454.64,141.5c13.54,12.1,34.87,21,53.6,21,19.88,0,31.41-9.51,31.41-21.9,0-13.54-15-19.31-34.58-27.09-20.46-8.07-51-21-51-56.2,0-31.12,24.78-57.06,68-57.06,18.16,0,37.18,5.76,49.86,13v38.9c-12.68-8.93-32-14.7-46.69-14.7-19,0-29.39,8.65-29.39,18.73,0,10.66,11.82,16.43,27.67,22.48C548,87.9,583.17,100,583.17,139.19c0,34-26.51,60.23-70.89,60.23-23.34,0-45-7.78-57.93-17.29l.29-40.63Z"/><path d="M776.54,4.32V197.41h-8.07L651.18,87h-.86V195.68H610.26V4h8.65l118.16,109.8V4.61h39.48Z"/></svg>