<svg xmlns="http://www.w3.org/2000/svg" viewBox="0 0 16 16"><title>file-types-file-xls</title><path d="M10.38,0H2.88a1,1,0,0,0-1,1V15a1,1,0,0,0,1,1h10.5a1,1,0,0,0,1-1V4Zm0,1.41L13,4H10.38Zm3,13.59H2.88V1h6.5V5h4Z"/><polygon points="6.08 7.31 5.43 8.49 5.39 8.49 4.73 7.31 3.9 7.31 4.92 8.96 3.9 10.64 4.66 10.64 5.34 9.49 5.38 9.49 6.06 10.64 6.87 10.64 5.83 8.98 6.88 7.31 6.08 7.31"/><polygon points="7.92 7.31 7.21 7.31 7.21 10.64 9.3 10.64 9.3 10.05 7.92 10.05 7.92 7.31"/><path d="M10.85,10.15a.76.76,0,0,1-.48-.13.45.45,0,0,1-.19-.33H9.51a1.05,1.05,0,0,0,0,.29.92.92,0,0,0,.14.27,1,1,0,0,0,.24.24,1.21,1.21,0,0,0,.37.16,2,2,0,0,0,.51.06,1.54,1.54,0,0,0,1-.28.93.93,0,0,0,.36-.77,1,1,0,0,0-.07-.39.71.71,0,0,0-.2-.28,1.21,1.21,0,0,0-.28-.18,1.74,1.74,0,0,0-.35-.11l-.51-.11q-.45-.09-.45-.38a.36.36,0,0,1,.15-.31.66.66,0,0,1,.41-.11.64.64,0,0,1,.43.13.45.45,0,0,1,.17.32h.66a.9.9,0,0,0-.35-.72,1.4,1.4,0,0,0-.9-.28,1.67,1.67,0,0,0-.64.12,1,1,0,0,0-.45.35.92.92,0,0,0-.17.55,1,1,0,0,0,.07.37.74.74,0,0,0,.19.27,1.06,1.06,0,0,0,.27.18,1.55,1.55,0,0,0,.33.11l.5.11a1,1,0,0,1,.39.15.31.31,0,0,1,.12.26.38.38,0,0,1-.16.32A.73.73,0,0,1,10.85,10.15Z"/></svg>